<mxfile host="app.diagrams.net" modified="2021-11-02T04:12:25.706Z" agent="5.0 (X11)" etag="0i_G1-P7m4Adq2f6g3lK" version="15.6.5" type="github">
  <diagram id="kgpKYQtTHZ0yAKxKKP6v" name="Page-1">
    <mxGraphModel dx="2356" dy="665" grid="1" gridSize="10" guides="1" tooltips="1" connect="1" arrows="1" fold="1" page="1" pageScale="1" pageWidth="850" pageHeight="1100" background="#F1FAEE" math="0" shadow="0">
      <root>
        <mxCell id="0" />
        <mxCell id="1" parent="0" />
        <mxCell id="3nuBFxr9cyL0pnOWT2aG-1" value="TransactionSummaryService" style="shape=umlLifeline;perimeter=lifelinePerimeter;container=1;collapsible=0;recursiveResize=0;rounded=0;shadow=0;strokeWidth=1;fillColor=#A8DADC;strokeColor=#457B9D;fontColor=#1D3557;fontSize=11;" parent="1" vertex="1">
          <mxGeometry x="-40" y="80" width="150" height="450" as="geometry" />
        </mxCell>
        <mxCell id="3nuBFxr9cyL0pnOWT2aG-4" value="" style="points=[];perimeter=orthogonalPerimeter;rounded=0;shadow=0;strokeWidth=1;fillColor=#A8DADC;strokeColor=#457B9D;fontColor=#1D3557;" parent="3nuBFxr9cyL0pnOWT2aG-1" vertex="1">
          <mxGeometry x="70" y="100" width="10" height="280" as="geometry" />
        </mxCell>
        <mxCell id="hSgq-olgcKwCjIowJQC3-39" value="getBalance()" style="verticalAlign=bottom;endArrow=block;shadow=0;strokeWidth=1;strokeColor=#457B9D;fontColor=#1D3557;labelBackgroundColor=#F1FAEE;exitX=1.152;exitY=0.059;exitDx=0;exitDy=0;exitPerimeter=0;entryX=-0.09;entryY=0.365;entryDx=0;entryDy=0;entryPerimeter=0;" edge="1" parent="3nuBFxr9cyL0pnOWT2aG-1" target="hSgq-olgcKwCjIowJQC3-21">
          <mxGeometry x="0.4206" relative="1" as="geometry">
            <mxPoint x="81.51999999999998" y="159.65999999999988" as="sourcePoint" />
            <mxPoint x="229.99999999999977" y="159.65999999999988" as="targetPoint" />
            <mxPoint as="offset" />
          </mxGeometry>
        </mxCell>
        <mxCell id="3nuBFxr9cyL0pnOWT2aG-5" value="TimeZoneDao" style="shape=umlLifeline;perimeter=lifelinePerimeter;container=1;collapsible=0;recursiveResize=0;rounded=0;shadow=0;strokeWidth=1;fillColor=#A8DADC;strokeColor=#457B9D;fontColor=#1D3557;fontSize=11;" parent="1" vertex="1">
          <mxGeometry x="120" y="80" width="150" height="440" as="geometry" />
        </mxCell>
        <mxCell id="hSgq-olgcKwCjIowJQC3-12" value="" style="points=[];perimeter=orthogonalPerimeter;rounded=0;shadow=0;strokeWidth=1;fillColor=#A8DADC;strokeColor=#457B9D;fontColor=#1D3557;" vertex="1" parent="3nuBFxr9cyL0pnOWT2aG-5">
          <mxGeometry x="70" y="100" width="10" height="50" as="geometry" />
        </mxCell>
        <mxCell id="hSgq-olgcKwCjIowJQC3-34" value="getTimeZoneByWarehouse()" style="verticalAlign=bottom;endArrow=block;shadow=0;strokeWidth=1;strokeColor=#457B9D;fontColor=#1D3557;labelBackgroundColor=#F1FAEE;exitX=1.152;exitY=0.059;exitDx=0;exitDy=0;exitPerimeter=0;" edge="1" parent="3nuBFxr9cyL0pnOWT2aG-5">
          <mxGeometry x="-0.0571" relative="1" as="geometry">
            <mxPoint x="-80.00000000000003" y="119.99999999999989" as="sourcePoint" />
            <mxPoint x="68.47999999999976" y="119.99999999999989" as="targetPoint" />
            <mxPoint as="offset" />
          </mxGeometry>
        </mxCell>
        <mxCell id="hSgq-olgcKwCjIowJQC3-37" value="return timezone" style="verticalAlign=bottom;endArrow=block;shadow=0;strokeWidth=1;strokeColor=#457B9D;fontColor=#1D3557;labelBackgroundColor=#F1FAEE;exitX=-0.021;exitY=0.85;exitDx=0;exitDy=0;exitPerimeter=0;" edge="1" parent="3nuBFxr9cyL0pnOWT2aG-5">
          <mxGeometry x="-0.0955" relative="1" as="geometry">
            <mxPoint x="69.99999999999974" y="140" as="sourcePoint" />
            <mxPoint x="-84.79000000000022" y="140.5000000000001" as="targetPoint" />
            <Array as="points" />
            <mxPoint as="offset" />
          </mxGeometry>
        </mxCell>
        <mxCell id="hSgq-olgcKwCjIowJQC3-41" value="transactionDetailList()" style="verticalAlign=bottom;endArrow=block;shadow=0;strokeWidth=1;strokeColor=#457B9D;fontColor=#1D3557;labelBackgroundColor=#F1FAEE;" edge="1" parent="3nuBFxr9cyL0pnOWT2aG-5" target="hSgq-olgcKwCjIowJQC3-17">
          <mxGeometry x="-0.0332" relative="1" as="geometry">
            <mxPoint x="-79" y="210" as="sourcePoint" />
            <mxPoint x="228.7899999999999" y="219.6599999999998" as="targetPoint" />
            <mxPoint as="offset" />
            <Array as="points">
              <mxPoint x="-30" y="210" />
              <mxPoint x="340" y="210" />
            </Array>
          </mxGeometry>
        </mxCell>
        <mxCell id="hSgq-olgcKwCjIowJQC3-50" value="return file" style="verticalAlign=bottom;endArrow=block;shadow=0;strokeWidth=1;strokeColor=#457B9D;fontColor=#1D3557;labelBackgroundColor=#F1FAEE;exitX=0.255;exitY=1.003;exitDx=0;exitDy=0;exitPerimeter=0;" edge="1" parent="3nuBFxr9cyL0pnOWT2aG-5" source="hSgq-olgcKwCjIowJQC3-47">
          <mxGeometry x="-0.0941" relative="1" as="geometry">
            <mxPoint x="69.99999999999977" y="299.9999999999999" as="sourcePoint" />
            <mxPoint x="-80" y="330" as="targetPoint" />
            <Array as="points">
              <mxPoint x="430" y="330" />
              <mxPoint x="280" y="330" />
              <mxPoint y="330" />
              <mxPoint x="-80" y="330" />
            </Array>
            <mxPoint as="offset" />
          </mxGeometry>
        </mxCell>
        <mxCell id="3nuBFxr9cyL0pnOWT2aG-8" value="transactionReportData()" style="verticalAlign=bottom;endArrow=block;shadow=0;strokeWidth=1;strokeColor=#457B9D;fontColor=#1D3557;labelBackgroundColor=#F1FAEE;exitX=1.152;exitY=0.059;exitDx=0;exitDy=0;exitPerimeter=0;" parent="1" source="hSgq-olgcKwCjIowJQC3-4" target="3nuBFxr9cyL0pnOWT2aG-4" edge="1">
          <mxGeometry x="-0.0776" relative="1" as="geometry">
            <mxPoint x="14.999999999999773" y="160.00000000000023" as="sourcePoint" />
            <mxPoint as="offset" />
          </mxGeometry>
        </mxCell>
        <mxCell id="hSgq-olgcKwCjIowJQC3-1" value="TransactionReportController" style="shape=umlLifeline;perimeter=lifelinePerimeter;container=1;collapsible=0;recursiveResize=0;rounded=0;shadow=0;strokeWidth=1;fillColor=#A8DADC;strokeColor=#457B9D;fontColor=#1D3557;fontSize=11;" vertex="1" parent="1">
          <mxGeometry x="-200" y="80" width="150" height="440" as="geometry" />
        </mxCell>
        <mxCell id="hSgq-olgcKwCjIowJQC3-4" value="" style="points=[];perimeter=orthogonalPerimeter;rounded=0;shadow=0;strokeWidth=1;fillColor=#A8DADC;strokeColor=#457B9D;fontColor=#1D3557;" vertex="1" parent="hSgq-olgcKwCjIowJQC3-1">
          <mxGeometry x="70" y="100" width="10" height="180" as="geometry" />
        </mxCell>
        <mxCell id="hSgq-olgcKwCjIowJQC3-9" value="TransactionDetailDao" style="shape=umlLifeline;perimeter=lifelinePerimeter;container=1;collapsible=0;recursiveResize=0;rounded=0;shadow=0;strokeWidth=1;fillColor=#A8DADC;strokeColor=#457B9D;fontColor=#1D3557;fontSize=11;" vertex="1" parent="1">
          <mxGeometry x="600" y="80" width="150" height="440" as="geometry" />
        </mxCell>
        <mxCell id="hSgq-olgcKwCjIowJQC3-10" value="" style="points=[];perimeter=orthogonalPerimeter;rounded=0;shadow=0;strokeWidth=1;fillColor=#A8DADC;strokeColor=#457B9D;fontColor=#1D3557;" vertex="1" parent="hSgq-olgcKwCjIowJQC3-9">
          <mxGeometry x="70" y="200" width="10" height="60" as="geometry" />
        </mxCell>
        <mxCell id="hSgq-olgcKwCjIowJQC3-44" value="return transactionDetailList" style="verticalAlign=bottom;endArrow=block;shadow=0;strokeWidth=1;strokeColor=#457B9D;fontColor=#1D3557;labelBackgroundColor=#F1FAEE;exitX=-0.021;exitY=0.85;exitDx=0;exitDy=0;exitPerimeter=0;" edge="1" parent="hSgq-olgcKwCjIowJQC3-9">
          <mxGeometry x="-0.0336" relative="1" as="geometry">
            <mxPoint x="74.78999999999974" y="239.9999999999999" as="sourcePoint" />
            <mxPoint x="-80.00000000000045" y="240.50000000000023" as="targetPoint" />
            <Array as="points" />
            <mxPoint as="offset" />
          </mxGeometry>
        </mxCell>
        <mxCell id="hSgq-olgcKwCjIowJQC3-13" value="RechargeDetailService" style="shape=umlLifeline;perimeter=lifelinePerimeter;container=1;collapsible=0;recursiveResize=0;rounded=0;shadow=0;strokeWidth=1;fillColor=#A8DADC;strokeColor=#457B9D;fontColor=#1D3557;fontSize=11;" vertex="1" parent="1">
          <mxGeometry x="280" y="80" width="150" height="440" as="geometry" />
        </mxCell>
        <mxCell id="hSgq-olgcKwCjIowJQC3-17" value="TransactionDetailService" style="shape=umlLifeline;perimeter=lifelinePerimeter;container=1;collapsible=0;recursiveResize=0;rounded=0;shadow=0;strokeWidth=1;fillColor=#A8DADC;strokeColor=#457B9D;fontColor=#1D3557;fontSize=11;" vertex="1" parent="1">
          <mxGeometry x="440" y="80" width="150" height="440" as="geometry" />
        </mxCell>
        <mxCell id="hSgq-olgcKwCjIowJQC3-20" value="" style="points=[];perimeter=orthogonalPerimeter;rounded=0;shadow=0;strokeWidth=1;fillColor=#A8DADC;strokeColor=#457B9D;fontColor=#1D3557;" vertex="1" parent="hSgq-olgcKwCjIowJQC3-17">
          <mxGeometry x="70" y="200" width="10" height="60" as="geometry" />
        </mxCell>
        <mxCell id="hSgq-olgcKwCjIowJQC3-43" value="transactionDetailList()&#xa;manuTransactionByBookingNo()&#xa;manuTransactionByDateRange()&#xa;manuBillingNoRefNo()" style="verticalAlign=bottom;endArrow=block;shadow=0;strokeWidth=1;strokeColor=#457B9D;fontColor=#1D3557;labelBackgroundColor=#F1FAEE;exitX=1.152;exitY=0.059;exitDx=0;exitDy=0;exitPerimeter=0;" edge="1" parent="hSgq-olgcKwCjIowJQC3-17">
          <mxGeometry x="0.0776" relative="1" as="geometry">
            <mxPoint x="79.99999999999977" y="219.65999999999985" as="sourcePoint" />
            <mxPoint x="228.4799999999998" y="219.65999999999985" as="targetPoint" />
            <mxPoint as="offset" />
          </mxGeometry>
        </mxCell>
        <mxCell id="3nuBFxr9cyL0pnOWT2aG-9" value="return report url/message" style="verticalAlign=bottom;endArrow=block;shadow=0;strokeWidth=1;strokeColor=#457B9D;fontColor=#1D3557;labelBackgroundColor=#F1FAEE;" parent="1" source="3nuBFxr9cyL0pnOWT2aG-4" edge="1">
          <mxGeometry x="0.031" relative="1" as="geometry">
            <mxPoint x="30" y="260" as="sourcePoint" />
            <mxPoint x="-125" y="359" as="targetPoint" />
            <Array as="points" />
            <mxPoint as="offset" />
          </mxGeometry>
        </mxCell>
        <mxCell id="hSgq-olgcKwCjIowJQC3-21" value="" style="points=[];perimeter=orthogonalPerimeter;rounded=0;shadow=0;strokeWidth=1;fillColor=#A8DADC;strokeColor=#457B9D;fontColor=#1D3557;" vertex="1" parent="1">
          <mxGeometry x="350" y="220" width="10" height="60" as="geometry" />
        </mxCell>
        <mxCell id="hSgq-olgcKwCjIowJQC3-40" value="return balance and cuurrency" style="verticalAlign=bottom;endArrow=block;shadow=0;strokeWidth=1;strokeColor=#457B9D;fontColor=#1D3557;labelBackgroundColor=#F1FAEE;" edge="1" parent="1" source="hSgq-olgcKwCjIowJQC3-21" target="3nuBFxr9cyL0pnOWT2aG-1">
          <mxGeometry x="0.28" relative="1" as="geometry">
            <mxPoint x="354.78999999999974" y="254.65999999999988" as="sourcePoint" />
            <mxPoint x="199.99999999999957" y="255.16000000000022" as="targetPoint" />
            <Array as="points">
              <mxPoint x="250" y="260" />
            </Array>
            <mxPoint as="offset" />
          </mxGeometry>
        </mxCell>
        <mxCell id="hSgq-olgcKwCjIowJQC3-42" value="return transactionDetailList" style="verticalAlign=bottom;endArrow=block;shadow=0;strokeWidth=1;strokeColor=#457B9D;fontColor=#1D3557;labelBackgroundColor=#F1FAEE;" edge="1" parent="1" target="3nuBFxr9cyL0pnOWT2aG-4">
          <mxGeometry x="0.28" relative="1" as="geometry">
            <mxPoint x="510" y="332" as="sourcePoint" />
            <mxPoint x="197.40034482758605" y="319.9999999999999" as="targetPoint" />
            <Array as="points" />
            <mxPoint as="offset" />
          </mxGeometry>
        </mxCell>
        <mxCell id="hSgq-olgcKwCjIowJQC3-46" value="TransactionReportTemplateExporter" style="shape=umlLifeline;perimeter=lifelinePerimeter;container=1;collapsible=0;recursiveResize=0;rounded=0;shadow=0;strokeWidth=1;fillColor=#A8DADC;strokeColor=#457B9D;fontColor=#1D3557;fontSize=9;" vertex="1" parent="1">
          <mxGeometry x="760" y="80" width="150" height="440" as="geometry" />
        </mxCell>
        <mxCell id="hSgq-olgcKwCjIowJQC3-47" value="" style="points=[];perimeter=orthogonalPerimeter;rounded=0;shadow=0;strokeWidth=1;fillColor=#A8DADC;strokeColor=#457B9D;fontColor=#1D3557;" vertex="1" parent="hSgq-olgcKwCjIowJQC3-46">
          <mxGeometry x="70" y="270" width="10" height="60" as="geometry" />
        </mxCell>
        <mxCell id="hSgq-olgcKwCjIowJQC3-49" value="export()" style="verticalAlign=bottom;endArrow=block;shadow=0;strokeWidth=1;strokeColor=#457B9D;fontColor=#1D3557;labelBackgroundColor=#F1FAEE;" edge="1" parent="hSgq-olgcKwCjIowJQC3-46" source="3nuBFxr9cyL0pnOWT2aG-4">
          <mxGeometry x="0.0571" relative="1" as="geometry">
            <mxPoint x="-78.48000000000023" y="279.9999999999999" as="sourcePoint" />
            <mxPoint x="69.99999999999979" y="279.9999999999999" as="targetPoint" />
            <mxPoint as="offset" />
          </mxGeometry>
        </mxCell>
        <mxCell id="hSgq-olgcKwCjIowJQC3-53" value="JxlsSheetProcessorFactory" style="shape=umlLifeline;perimeter=lifelinePerimeter;container=1;collapsible=0;recursiveResize=0;rounded=0;shadow=0;strokeWidth=1;fillColor=#A8DADC;strokeColor=#457B9D;fontColor=#1D3557;fontSize=11;" vertex="1" parent="1">
          <mxGeometry x="920" y="80" width="150" height="440" as="geometry" />
        </mxCell>
        <mxCell id="hSgq-olgcKwCjIowJQC3-54" value="" style="points=[];perimeter=orthogonalPerimeter;rounded=0;shadow=0;strokeWidth=1;fillColor=#A8DADC;strokeColor=#457B9D;fontColor=#1D3557;" vertex="1" parent="hSgq-olgcKwCjIowJQC3-53">
          <mxGeometry x="70" y="270" width="10" height="60" as="geometry" />
        </mxCell>
        <mxCell id="hSgq-olgcKwCjIowJQC3-55" value="getProcessorWorker()" style="verticalAlign=bottom;endArrow=block;shadow=0;strokeWidth=1;strokeColor=#457B9D;fontColor=#1D3557;labelBackgroundColor=#F1FAEE;" edge="1" parent="hSgq-olgcKwCjIowJQC3-53">
          <mxGeometry x="0.0571" relative="1" as="geometry">
            <mxPoint x="-78.48000000000023" y="279.9999999999999" as="sourcePoint" />
            <mxPoint x="69.99999999999979" y="279.9999999999999" as="targetPoint" />
            <mxPoint as="offset" />
          </mxGeometry>
        </mxCell>
        <mxCell id="hSgq-olgcKwCjIowJQC3-56" value="return SheetProcessor" style="verticalAlign=bottom;endArrow=block;shadow=0;strokeWidth=1;strokeColor=#457B9D;fontColor=#1D3557;labelBackgroundColor=#F1FAEE;exitX=-0.021;exitY=0.85;exitDx=0;exitDy=0;exitPerimeter=0;" edge="1" parent="hSgq-olgcKwCjIowJQC3-53">
          <mxGeometry x="0.0337" relative="1" as="geometry">
            <mxPoint x="70" y="299.57999999999987" as="sourcePoint" />
            <mxPoint x="-84.79000000000042" y="300.0800000000002" as="targetPoint" />
            <Array as="points" />
            <mxPoint as="offset" />
          </mxGeometry>
        </mxCell>
        <mxCell id="hSgq-olgcKwCjIowJQC3-57" value="JxlsSheetProcessorFactory" style="shape=umlLifeline;perimeter=lifelinePerimeter;container=1;collapsible=0;recursiveResize=0;rounded=0;shadow=0;strokeWidth=1;fillColor=#A8DADC;strokeColor=#457B9D;fontColor=#1D3557;fontSize=11;" vertex="1" parent="1">
          <mxGeometry x="1080" y="80" width="150" height="440" as="geometry" />
        </mxCell>
        <mxCell id="hSgq-olgcKwCjIowJQC3-58" value="" style="points=[];perimeter=orthogonalPerimeter;rounded=0;shadow=0;strokeWidth=1;fillColor=#A8DADC;strokeColor=#457B9D;fontColor=#1D3557;" vertex="1" parent="hSgq-olgcKwCjIowJQC3-57">
          <mxGeometry x="70" y="270" width="10" height="60" as="geometry" />
        </mxCell>
        <mxCell id="hSgq-olgcKwCjIowJQC3-59" value="process()" style="verticalAlign=bottom;endArrow=block;shadow=0;strokeWidth=1;strokeColor=#457B9D;fontColor=#1D3557;labelBackgroundColor=#F1FAEE;" edge="1" parent="hSgq-olgcKwCjIowJQC3-57">
          <mxGeometry x="0.0571" relative="1" as="geometry">
            <mxPoint x="-78.48000000000023" y="279.9999999999999" as="sourcePoint" />
            <mxPoint x="69.99999999999979" y="279.9999999999999" as="targetPoint" />
            <mxPoint as="offset" />
          </mxGeometry>
        </mxCell>
      </root>
    </mxGraphModel>
  </diagram>
</mxfile>
